<svg xmlns="http://www.w3.org/2000/svg" viewBox="0 0 100 100" width="100" height="100">
  <rect width="100" height="100" fill="#f0f0f0" rx="15" ry="15"/>
  
  <!-- Tiles -->
  <g transform="translate(20, 35)">
    <!-- W -->
    <rect x="0" y="0" width="15" height="15" fill="#F1C40F" stroke="#7F8C8D" stroke-width="1" rx="2" ry="2"/>
    <text x="5" y="12" font-family="Arial" font-weight="bold" font-size="12" fill="#34495E">W</text>
    
    <!-- O -->
    <rect x="15" y="0" width="15" height="15" fill="#F1C40F" stroke="#7F8C8D" stroke-width="1" rx="2" ry="2"/>
    <text x="20" y="12" font-family="Arial" font-weight="bold" font-size="12" fill="#34495E">O</text>
    
    <!-- R -->
    <rect x="30" y="0" width="15" height="15" fill="#F1C40F" stroke="#7F8C8D" stroke-width="1" rx="2" ry="2"/>
    <text x="36" y="12" font-family="Arial" font-weight="bold" font-size="12" fill="#34495E">R</text>
    
    <!-- D -->
    <rect x="45" y="0" width="15" height="15" fill="#F1C40F" stroke="#7F8C8D" stroke-width="1" rx="2" ry="2"/>
    <text x="51" y="12" font-family="Arial" font-weight="bold" font-size="12" fill="#34495E">D</text>
    
    <!-- A -->
    <rect x="30" y="15" width="15" height="15" fill="#F1C40F" stroke="#7F8C8D" stroke-width="1" rx="2" ry="2"/>
    <text x="36" y="27" font-family="Arial" font-weight="bold" font-size="12" fill="#34495E">A</text>
    
    <!-- M -->
    <rect x="30" y="30" width="15" height="15" fill="#F1C40F" stroke="#7F8C8D" stroke-width="1" rx="2" ry="2"/>
    <text x="36" y="42" font-family="Arial" font-weight="bold" font-size="12" fill="#34495E">M</text>
    
    <!-- E -->
    <rect x="30" y="45" width="15" height="15" fill="#F1C40F" stroke="#7F8C8D" stroke-width="1" rx="2" ry="2"/>
    <text x="36" y="57" font-family="Arial" font-weight="bold" font-size="12" fill="#34495E">E</text>
  </g>
</svg> 