<svg xmlns="http://www.w3.org/2000/svg" viewBox="0 0 100 100">
  <!-- Background -->
  <rect width="100" height="100" fill="#1a1a2e"/>

  <!-- Bricks row 1 -->
  <rect x="5" y="10" width="18" height="8" rx="2" fill="#ef4444"/>
  <rect x="26" y="10" width="18" height="8" rx="2" fill="#ef4444"/>
  <rect x="47" y="10" width="18" height="8" rx="2" fill="#ef4444"/>
  <rect x="68" y="10" width="18" height="8" rx="2" fill="#ef4444"/>

  <!-- Bricks row 2 -->
  <rect x="5" y="21" width="18" height="8" rx="2" fill="#f97316"/>
  <rect x="26" y="21" width="18" height="8" rx="2" fill="#f97316"/>
  <rect x="47" y="21" width="18" height="8" rx="2" fill="#f97316"/>
  <rect x="68" y="21" width="18" height="8" rx="2" fill="#f97316"/>

  <!-- Bricks row 3 -->
  <rect x="5" y="32" width="18" height="8" rx="2" fill="#eab308"/>
  <rect x="26" y="32" width="18" height="8" rx="2" fill="#eab308"/>
  <rect x="47" y="32" width="18" height="8" rx="2" fill="#eab308"/>
  <rect x="68" y="32" width="18" height="8" rx="2" fill="#eab308"/>

  <!-- Bricks row 4 -->
  <rect x="5" y="43" width="18" height="8" rx="2" fill="#22c55e"/>
  <rect x="26" y="43" width="18" height="8" rx="2" fill="#22c55e"/>
  <rect x="47" y="43" width="18" height="8" rx="2" fill="#22c55e"/>
  <rect x="68" y="43" width="18" height="8" rx="2" fill="#22c55e"/>

  <!-- Ball -->
  <circle cx="50" cy="70" r="5" fill="#f8fafc"/>

  <!-- Paddle -->
  <rect x="30" y="85" width="40" height="8" rx="4" fill="#60a5fa"/>
</svg>
