<svg xmlns="http://www.w3.org/2000/svg" viewBox="0 0 100 100" width="100" height="100">
  <rect width="100" height="100" fill="#f0f0f0" rx="15" ry="15"/>
  <rect x="20" y="20" width="60" height="60" fill="#3498DB" rx="5" ry="5"/>
  
  <!-- Grid lines -->
  <line x1="30" y1="20" x2="30" y2="80" stroke="#f0f0f0" stroke-width="2"/>
  <line x1="40" y1="20" x2="40" y2="80" stroke="#f0f0f0" stroke-width="2"/>
  <line x1="50" y1="20" x2="50" y2="80" stroke="#f0f0f0" stroke-width="2"/>
  <line x1="60" y1="20" x2="60" y2="80" stroke="#f0f0f0" stroke-width="2"/>
  <line x1="70" y1="20" x2="70" y2="80" stroke="#f0f0f0" stroke-width="2"/>
  
  <line x1="20" y1="30" x2="80" y2="30" stroke="#f0f0f0" stroke-width="2"/>
  <line x1="20" y1="40" x2="80" y2="40" stroke="#f0f0f0" stroke-width="2"/>
  <line x1="20" y1="50" x2="80" y2="50" stroke="#f0f0f0" stroke-width="2"/>
  <line x1="20" y1="60" x2="80" y2="60" stroke="#f0f0f0" stroke-width="2"/>
  <line x1="20" y1="70" x2="80" y2="70" stroke="#f0f0f0" stroke-width="2"/>
  
  <!-- Chips -->
  <circle cx="35" cy="65" r="4" fill="#E74C3C"/>
  <circle cx="35" cy="75" r="4" fill="#E74C3C"/>
  <circle cx="45" cy="75" r="4" fill="#E74C3C"/>
  <circle cx="55" cy="75" r="4" fill="#FFFF00"/>
  <circle cx="45" cy="65" r="4" fill="#FFFF00"/>
  <circle cx="55" cy="65" r="4" fill="#FFFF00"/>
</svg> 