<svg xmlns="http://www.w3.org/2000/svg" viewBox="0 0 100 100" width="100" height="100">
  <rect width="100" height="100" fill="#f0f0f0" rx="15" ry="15"/>
  <rect x="20" y="20" width="60" height="60" fill="white" stroke="#333" stroke-width="2" rx="2" ry="2"/>
  
  <!-- Grid lines - thin -->
  <line x1="33.3" y1="20" x2="33.3" y2="80" stroke="#777" stroke-width="1"/>
  <line x1="46.6" y1="20" x2="46.6" y2="80" stroke="#777" stroke-width="1"/>
  <line x1="66.6" y1="20" x2="66.6" y2="80" stroke="#777" stroke-width="1"/>
  <line x1="20" y1="33.3" x2="80" y2="33.3" stroke="#777" stroke-width="1"/>
  <line x1="20" y1="46.6" x2="80" y2="46.6" stroke="#777" stroke-width="1"/>
  <line x1="20" y1="66.6" x2="80" y2="66.6" stroke="#777" stroke-width="1"/>
  
  <!-- Grid lines - thick -->
  <line x1="40" y1="20" x2="40" y2="80" stroke="#333" stroke-width="2"/>
  <line x1="60" y1="20" x2="60" y2="80" stroke="#333" stroke-width="2"/>
  <line x1="20" y1="40" x2="80" y2="40" stroke="#333" stroke-width="2"/>
  <line x1="20" y1="60" x2="80" y2="60" stroke="#333" stroke-width="2"/>
  
  <!-- Numbers -->
  <text x="26.5" y="31" font-family="Arial" font-size="10" fill="#3498DB">5</text>
  <text x="46.5" y="31" font-family="Arial" font-size="10" fill="#3498DB">3</text>
  <text x="66.5" y="31" font-family="Arial" font-size="10" fill="#3498DB">7</text>
  <text x="26.5" y="51" font-family="Arial" font-size="10" fill="#3498DB">6</text>
  <text x="46.5" y="51" font-family="Arial" font-size="10" fill="#E74C3C">1</text>
  <text x="66.5" y="51" font-family="Arial" font-size="10" fill="#3498DB">9</text>
  <text x="26.5" y="71" font-family="Arial" font-size="10" fill="#E74C3C">8</text>
  <text x="46.5" y="71" font-family="Arial" font-size="10" fill="#3498DB">2</text>
  <text x="66.5" y="71" font-family="Arial" font-size="10" fill="#E74C3C">4</text>
</svg> 