<svg xmlns="http://www.w3.org/2000/svg" viewBox="0 0 100 100">
  <!-- Chessboard -->
  <rect width="100" height="100" fill="#b58863"/>

  <!-- Dark squares -->
  <rect x="12.5" y="0" width="12.5" height="12.5" fill="#f0d9b5"/>
  <rect x="37.5" y="0" width="12.5" height="12.5" fill="#f0d9b5"/>
  <rect x="62.5" y="0" width="12.5" height="12.5" fill="#f0d9b5"/>
  <rect x="87.5" y="0" width="12.5" height="12.5" fill="#f0d9b5"/>

  <rect x="0" y="12.5" width="12.5" height="12.5" fill="#f0d9b5"/>
  <rect x="25" y="12.5" width="12.5" height="12.5" fill="#f0d9b5"/>
  <rect x="50" y="12.5" width="12.5" height="12.5" fill="#f0d9b5"/>
  <rect x="75" y="12.5" width="12.5" height="12.5" fill="#f0d9b5"/>

  <rect x="12.5" y="25" width="12.5" height="12.5" fill="#f0d9b5"/>
  <rect x="37.5" y="25" width="12.5" height="12.5" fill="#f0d9b5"/>
  <rect x="62.5" y="25" width="12.5" height="12.5" fill="#f0d9b5"/>
  <rect x="87.5" y="25" width="12.5" height="12.5" fill="#f0d9b5"/>

  <rect x="0" y="37.5" width="12.5" height="12.5" fill="#f0d9b5"/>
  <rect x="25" y="37.5" width="12.5" height="12.5" fill="#f0d9b5"/>
  <rect x="50" y="37.5" width="12.5" height="12.5" fill="#f0d9b5"/>
  <rect x="75" y="37.5" width="12.5" height="12.5" fill="#f0d9b5"/>

  <rect x="12.5" y="50" width="12.5" height="12.5" fill="#f0d9b5"/>
  <rect x="37.5" y="50" width="12.5" height="12.5" fill="#f0d9b5"/>
  <rect x="62.5" y="50" width="12.5" height="12.5" fill="#f0d9b5"/>
  <rect x="87.5" y="50" width="12.5" height="12.5" fill="#f0d9b5"/>

  <rect x="0" y="62.5" width="12.5" height="12.5" fill="#f0d9b5"/>
  <rect x="25" y="62.5" width="12.5" height="12.5" fill="#f0d9b5"/>
  <rect x="50" y="62.5" width="12.5" height="12.5" fill="#f0d9b5"/>
  <rect x="75" y="62.5" width="12.5" height="12.5" fill="#f0d9b5"/>

  <rect x="12.5" y="75" width="12.5" height="12.5" fill="#f0d9b5"/>
  <rect x="37.5" y="75" width="12.5" height="12.5" fill="#f0d9b5"/>
  <rect x="62.5" y="75" width="12.5" height="12.5" fill="#f0d9b5"/>
  <rect x="87.5" y="75" width="12.5" height="12.5" fill="#f0d9b5"/>

  <rect x="0" y="87.5" width="12.5" height="12.5" fill="#f0d9b5"/>
  <rect x="25" y="87.5" width="12.5" height="12.5" fill="#f0d9b5"/>
  <rect x="50" y="87.5" width="12.5" height="12.5" fill="#f0d9b5"/>
  <rect x="75" y="87.5" width="12.5" height="12.5" fill="#f0d9b5"/>

  <!-- Queens (crown symbols) -->
  <text x="6" y="11" font-size="11" fill="#7c3aed">&#9819;</text>
  <text x="31" y="23.5" font-size="11" fill="#7c3aed">&#9819;</text>
  <text x="56" y="36" font-size="11" fill="#7c3aed">&#9819;</text>
  <text x="19" y="48.5" font-size="11" fill="#7c3aed">&#9819;</text>
  <text x="81" y="61" font-size="11" fill="#7c3aed">&#9819;</text>
  <text x="44" y="73.5" font-size="11" fill="#7c3aed">&#9819;</text>
  <text x="69" y="86" font-size="11" fill="#7c3aed">&#9819;</text>
  <text x="94" y="98.5" font-size="11" fill="#7c3aed">&#9819;</text>
</svg>
