<svg xmlns="http://www.w3.org/2000/svg" viewBox="0 0 100 100" width="100" height="100">
  <!-- Background -->
  <rect width="100" height="100" fill="#1e293b" rx="12"/>

  <!-- Grid background -->
  <rect x="10" y="10" width="80" height="80" fill="#334155" rx="4"/>

  <!-- 3x3 box borders (thick blue) -->
  <rect x="10" y="10" width="26.67" height="26.67" fill="none" stroke="#3b82f6" stroke-width="2.5"/>
  <rect x="36.67" y="10" width="26.67" height="26.67" fill="none" stroke="#3b82f6" stroke-width="2.5"/>
  <rect x="63.33" y="10" width="26.67" height="26.67" fill="none" stroke="#3b82f6" stroke-width="2.5"/>
  <rect x="10" y="36.67" width="26.67" height="26.67" fill="none" stroke="#3b82f6" stroke-width="2.5"/>
  <rect x="36.67" y="36.67" width="26.67" height="26.67" fill="none" stroke="#3b82f6" stroke-width="2.5"/>
  <rect x="63.33" y="36.67" width="26.67" height="26.67" fill="none" stroke="#3b82f6" stroke-width="2.5"/>
  <rect x="10" y="63.33" width="26.67" height="26.67" fill="none" stroke="#3b82f6" stroke-width="2.5"/>
  <rect x="36.67" y="63.33" width="26.67" height="26.67" fill="none" stroke="#3b82f6" stroke-width="2.5"/>
  <rect x="63.33" y="63.33" width="26.67" height="26.67" fill="none" stroke="#3b82f6" stroke-width="2.5"/>

  <!-- Cell grid lines (thin) -->
  <line x1="18.89" y1="10" x2="18.89" y2="90" stroke="#475569" stroke-width="1"/>
  <line x1="27.78" y1="10" x2="27.78" y2="90" stroke="#475569" stroke-width="1"/>
  <line x1="45.56" y1="10" x2="45.56" y2="90" stroke="#475569" stroke-width="1"/>
  <line x1="54.44" y1="10" x2="54.44" y2="90" stroke="#475569" stroke-width="1"/>
  <line x1="72.22" y1="10" x2="72.22" y2="90" stroke="#475569" stroke-width="1"/>
  <line x1="81.11" y1="10" x2="81.11" y2="90" stroke="#475569" stroke-width="1"/>

  <line x1="10" y1="18.89" x2="90" y2="18.89" stroke="#475569" stroke-width="1"/>
  <line x1="10" y1="27.78" x2="90" y2="27.78" stroke="#475569" stroke-width="1"/>
  <line x1="10" y1="45.56" x2="90" y2="45.56" stroke="#475569" stroke-width="1"/>
  <line x1="10" y1="54.44" x2="90" y2="54.44" stroke="#475569" stroke-width="1"/>
  <line x1="10" y1="72.22" x2="90" y2="72.22" stroke="#475569" stroke-width="1"/>
  <line x1="10" y1="81.11" x2="90" y2="81.11" stroke="#475569" stroke-width="1"/>

  <!-- Numbers - given clues (cyan/blue) -->
  <text x="14" y="18" font-family="Arial, sans-serif" font-size="8" font-weight="bold" fill="#60a5fa">5</text>
  <text x="41" y="18" font-family="Arial, sans-serif" font-size="8" font-weight="bold" fill="#60a5fa">3</text>
  <text x="68" y="18" font-family="Arial, sans-serif" font-size="8" font-weight="bold" fill="#60a5fa">7</text>

  <text x="14" y="45" font-family="Arial, sans-serif" font-size="8" font-weight="bold" fill="#60a5fa">6</text>
  <text x="50" y="54" font-family="Arial, sans-serif" font-size="8" font-weight="bold" fill="#60a5fa">9</text>
  <text x="77" y="45" font-family="Arial, sans-serif" font-size="8" font-weight="bold" fill="#60a5fa">8</text>

  <text x="23" y="72" font-family="Arial, sans-serif" font-size="8" font-weight="bold" fill="#60a5fa">4</text>
  <text x="50" y="81" font-family="Arial, sans-serif" font-size="8" font-weight="bold" fill="#60a5fa">2</text>
  <text x="86" y="89" font-family="Arial, sans-serif" font-size="8" font-weight="bold" fill="#60a5fa">1</text>

  <!-- Numbers - player filled (green) -->
  <text x="23" y="27" font-family="Arial, sans-serif" font-size="8" font-weight="bold" fill="#4ade80">8</text>
  <text x="59" y="27" font-family="Arial, sans-serif" font-size="8" font-weight="bold" fill="#4ade80">1</text>
  <text x="77" y="54" font-family="Arial, sans-serif" font-size="8" font-weight="bold" fill="#4ade80">3</text>
  <text x="41" y="72" font-family="Arial, sans-serif" font-size="8" font-weight="bold" fill="#4ade80">7</text>
</svg>
