<svg xmlns="http://www.w3.org/2000/svg" viewBox="0 0 100 100" width="100" height="100">
  <rect width="100" height="100" fill="#f0f0f0" rx="15" ry="15"/>
  
  <!-- Main grid -->
  <rect x="20" y="20" width="60" height="60" fill="white" stroke="#333" stroke-width="2" rx="2" ry="2"/>
  
  <!-- Main grid lines -->
  <line x1="40" y1="20" x2="40" y2="80" stroke="#333" stroke-width="2"/>
  <line x1="60" y1="20" x2="60" y2="80" stroke="#333" stroke-width="2"/>
  <line x1="20" y1="40" x2="80" y2="40" stroke="#333" stroke-width="2"/>
  <line x1="20" y1="60" x2="80" y2="60" stroke="#333" stroke-width="2"/>
  
  <!-- Top left subgrid -->
  <line x1="26.6" y1="20" x2="26.6" y2="40" stroke="#777" stroke-width="1"/>
  <line x1="33.3" y1="20" x2="33.3" y2="40" stroke="#777" stroke-width="1"/>
  <line x1="20" y1="26.6" x2="40" y2="26.6" stroke="#777" stroke-width="1"/>
  <line x1="20" y1="33.3" x2="40" y2="33.3" stroke="#777" stroke-width="1"/>
  
  <!-- Top middle subgrid -->
  <line x1="46.6" y1="20" x2="46.6" y2="40" stroke="#777" stroke-width="1"/>
  <line x1="53.3" y1="20" x2="53.3" y2="40" stroke="#777" stroke-width="1"/>
  <line x1="40" y1="26.6" x2="60" y2="26.6" stroke="#777" stroke-width="1"/>
  <line x1="40" y1="33.3" x2="60" y2="33.3" stroke="#777" stroke-width="1"/>
  
  <!-- Middle left subgrid -->
  <line x1="26.6" y1="40" x2="26.6" y2="60" stroke="#777" stroke-width="1"/>
  <line x1="33.3" y1="40" x2="33.3" y2="60" stroke="#777" stroke-width="1"/>
  <line x1="20" y1="46.6" x2="40" y2="46.6" stroke="#777" stroke-width="1"/>
  <line x1="20" y1="53.3" x2="40" y2="53.3" stroke="#777" stroke-width="1"/>
  
  <!-- Middle middle subgrid -->
  <line x1="46.6" y1="40" x2="46.6" y2="60" stroke="#777" stroke-width="1"/>
  <line x1="53.3" y1="40" x2="53.3" y2="60" stroke="#777" stroke-width="1"/>
  <line x1="40" y1="46.6" x2="60" y2="46.6" stroke="#777" stroke-width="1"/>
  <line x1="40" y1="53.3" x2="60" y2="53.3" stroke="#777" stroke-width="1"/>
  
  <!-- Some X's and O's -->
  <line x1="24" y1="24" x2="30" y2="30" stroke="#E74C3C" stroke-width="2" stroke-linecap="round"/>
  <line x1="30" y1="24" x2="24" y2="30" stroke="#E74C3C" stroke-width="2" stroke-linecap="round"/>
  
  <circle cx="50" cy="30" r="5" stroke="#3498DB" stroke-width="2" fill="none"/>
  
  <line x1="70" y1="24" x2="76" y2="30" stroke="#E74C3C" stroke-width="2" stroke-linecap="round"/>
  <line x1="76" y1="24" x2="70" y2="30" stroke="#E74C3C" stroke-width="2" stroke-linecap="round"/>
  
  <circle cx="30" cy="50" r="5" stroke="#3498DB" stroke-width="2" fill="none"/>
</svg> 